<?xml version="1.0" encoding="UTF-8" standalone="no"?>
<svg
   xmlns:dc="http://purl.org/dc/elements/1.1/"
   xmlns:cc="http://creativecommons.org/ns#"
   xmlns:rdf="http://www.w3.org/1999/02/22-rdf-syntax-ns#"
   xmlns:svg="http://www.w3.org/2000/svg"
   xmlns="http://www.w3.org/2000/svg"
   xmlns:sodipodi="http://sodipodi.sourceforge.net/DTD/sodipodi-0.dtd"
   xmlns:inkscape="http://www.inkscape.org/namespaces/inkscape"
   id="svg3904"
   version="1.1"
   viewBox="0 0 40 35"
   height="35mm"
   width="40mm"
   sodipodi:docname="export-logo-only.svg"
   inkscape:version="0.92.4 (unknown)">
  <sodipodi:namedview
     pagecolor="#ffffff"
     bordercolor="#666666"
     borderopacity="1"
     objecttolerance="10"
     gridtolerance="10"
     guidetolerance="10"
     inkscape:pageopacity="0"
     inkscape:pageshadow="2"
     inkscape:window-width="1920"
     inkscape:window-height="1021"
     id="namedview25"
     showgrid="false"
     inkscape:zoom="1"
     inkscape:cx="395.85039"
     inkscape:cy="-37.709863"
     inkscape:window-x="0"
     inkscape:window-y="0"
     inkscape:window-maximized="1"
     inkscape:current-layer="svg3904" />
  <defs
     id="defs3898" />
  <metadata
     id="metadata3901">
    <rdf:RDF>
      <cc:Work
         rdf:about="">
        <dc:format>image/svg+xml</dc:format>
        <dc:type
           rdf:resource="http://purl.org/dc/dcmitype/StillImage" />
        <dc:title></dc:title>
      </cc:Work>
    </rdf:RDF>
  </metadata>
  <g
     id="layer1"
     transform="translate(-53.327378,-50.118361)">
    <g
       id="g38"
       transform="matrix(0.26458333,0,0,0.26458333,57.914941,54.857876)">
      <path
         style="fill:#00adef"
         id="path2"
         d="m 110.5,47.8 c -0.8,2.1 -0.5,4.8 -1.8,6.6 -0.1,-1 0.5,-2 0.6,-3.2 1,-7 -5.1,-11.1 -6.5,-17 -0.1,1.6 0,3.1 0.3,4.5 0.3,7.4 5.2,13.4 3.8,21.1 1.4,-1.8 2.4,-3.7 4.1,-5.4 5.6,-5.8 7,-15.5 3.8,-22.9 1,6.1 -2.8,10.8 -4.3,16.3"
         inkscape:connector-curvature="0" />
      <path
         style="fill:#00adef"
         id="path4"
         d="m 109.3,31.2 c 0.1,2.4 0.5,4.7 0.3,7.1 -0.3,-0.9 -0.4,-1.9 -0.7,-2.9 -1.2,-5.3 -7.4,-7.9 -9.9,-12.3 0.4,1.5 0.7,3 1.2,4.4 2.2,6.3 8.7,10.5 9.5,17.3 0.6,-6.5 5.1,-11.7 3.4,-18.7 -0.9,-3.6 -2.4,-7 -5,-9.7 3,4.1 1.4,9.9 1.2,14.8"
         inkscape:connector-curvature="0" />
      <path
         style="fill:#00adef"
         id="path6"
         d="M 25.4,77.1 C 23.2,71 21.3,64.7 16.5,59.8 l 1.1,2.9 c 1.1,6.4 1.6,13.5 7.4,17.5 l -0.1,0.1 C 23,79.5 21.6,77.9 19.9,76.9 14.4,73.3 6.8,71.8 3.7,65 4.5,70 8,74.4 12,77.5 c 4.9,4.3 11.7,4 17.7,5.7 -2.1,-1.7 -3.3,-3.7 -4.3,-6.1"
         inkscape:connector-curvature="0" />
      <path
         style="fill:#00adef"
         id="path8"
         d="M 18.3,73.9 C 13.9,66.4 16.3,56.1 12.7,48.2 13.2,50.8 12.4,53 12,55.3 10.7,59.7 11.3,65 13.9,68.6 13.1,68.2 12.5,67.2 12,66.3 8.8,60.2 0.7,56.7 0,49.3 0,52 0,54.8 0.8,57.2 3,65.5 12.1,69.7 18.3,73.9"
         inkscape:connector-curvature="0" />
      <path
         style="fill:#00adef"
         id="path10"
         d="M 44.8,85.9 C 36.2,85.5 31.6,76.2 24.7,72.2 c 3,3.5 3.1,8.1 7.2,10.9 1.6,1.4 3.7,1.7 5.5,2.4 -2,0.2 -3.8,-0.6 -5.8,-0.7 -6.6,-0.8 -14.3,0 -19.1,-5.4 2.2,3.9 6.1,7.2 10.2,8.5 7.8,2.9 14.8,-1.4 22.1,-2"
         inkscape:connector-curvature="0" />
      <path
         style="fill:#00adef"
         id="path12"
         d="m 85.8,84.3 c -2.2,0.3 -4.4,0.9 -6.6,0.9 0.1,-0.1 0.2,-0.2 0.3,-0.2 7.2,-0.6 9.3,-8.5 12.3,-13.3 -4.4,2.9 -8.3,7.8 -12.3,11 -2.2,1.7 -4.9,2.2 -7.5,3 5.8,0.4 10.6,3.2 16.7,2.8 6.5,-0.3 12.4,-4.1 15.5,-9.8 -4.6,5.3 -11.8,5 -18.4,5.6"
         inkscape:connector-curvature="0" />
      <path
         style="fill:#00adef"
         id="path14"
         d="m 80.4,90.2 c -6.6,-3 -14.3,-6.4 -22,-3.5 -3.9,-1.3 -9,-1.3 -12.9,0 -6.8,3.1 -16.1,7.8 -23.3,2.6 1.4,1.6 2.8,2.4 4.4,3.5 4.6,3 11.3,2.7 16.1,0.3 4.4,-1.9 7.8,-7.4 13.4,-5.6 -4.8,2.4 -9.1,5.3 -13.1,9.4 l 2.4,2 c 3.5,-4.6 8.2,-8.4 13.2,-10.7 4.9,2.4 9.3,6.4 13,10.5 l 2.4,-2 C 70.1,93 65.7,89.9 61,87.5 c 1.2,-0.3 2.7,-0.2 3.9,-0.1 5,2.2 8.9,6.6 14.6,7.3 6,1 11.4,-1.5 15.1,-5.9 l -2.9,1.5 c -3.4,1.4 -7.9,1 -11.3,-0.1"
         inkscape:connector-curvature="0" />
      <path
         style="fill:#00adef"
         id="path16"
         d="m 105.9,71.4 c -4.8,2.2 -9.7,4.8 -13.7,8.3 H 91.7 L 92,79.3 c 7,-4.6 5.1,-13.6 8.1,-20.2 l -3.2,4.2 c -4.4,6 -3.9,14.3 -9.9,19.4 3.1,-1 6.6,-1.4 9.8,-2.1 7.3,-1.9 15,-9 16,-16.5 -1.4,3.2 -4.2,5.5 -6.9,7.3"
         inkscape:connector-curvature="0" />
      <path
         style="fill:#00adef"
         id="path18"
         d="m 102.5,18.5 c -0.9,-1.9 -1.1,-4 -2,-5.9 C 98.6,7.5 92.9,5 88.1,3.4 l 3,3 c 3,4.6 7.2,9.2 11.4,12.1"
         inkscape:connector-curvature="0" />
      <path
         style="fill:#00adef"
         id="path20"
         d="M 16.9,23.7 C 14.4,28.3 8.3,31 7.2,36.4 7.2,37.3 6.9,38.1 6.7,39 L 6.5,38.8 6.8,35.3 C 7.8,29 4.2,22.5 7.4,17.1 5.2,19.8 3.7,23 2.9,26.4 1.4,33.5 5.7,39 6.6,45.5 7.9,37.4 16.4,32.2 16.9,23.7"
         inkscape:connector-curvature="0" />
      <path
         style="fill:#00adef"
         id="path22"
         d="m 115,52.7 c -3.4,5.3 -9.2,9.6 -12.1,15.1 -0.1,0.2 -0.3,0.3 -0.5,0.1 l 0.6,-0.7 c 4.1,-5.9 0.4,-13.2 0.7,-19.8 -3.7,7.9 -1,18.4 -5.5,26 l 0.7,-0.6 c 8.7,-4.8 19.2,-12.8 17.4,-24.4 0,1.6 -0.5,3 -1.3,4.3"
         inkscape:connector-curvature="0" />
      <path
         style="fill:#00adef"
         id="path24"
         d="m 29.7,14.3 0.2,0.6 4.2,4.1 c -4.5,4.3 -7,9.9 -8.3,15.7 -0.2,2 -0.8,3.9 -0.5,5.9 L 19,40.5 c 0.4,-10 4.1,-19.1 10.7,-26.2 m 27,-12.2 c -0.1,2 -0.2,4.2 0.1,6.1 -8.1,0.3 -15.4,3.4 -21.1,9 L 31.1,12.8 C 38.3,6.4 46.9,2.7 56.7,2.1 m 0.1,22.5 c -3.6,0.1 -7,1.6 -9.6,4.1 -1.5,-1.4 -2.8,-3 -4.4,-4.1 4.1,-3.2 8.6,-5.6 13.9,-5.9 l 0.2,-0.2 c -0.3,1.9 -0.2,4.3 -0.1,6.1 m -1.6,5.9 c -0.6,0 -0.7,0.7 -0.9,1.1 0.3,0.5 -0.4,0.9 -0.5,1.4 -0.4,0 -1,0.5 -1.3,-0.1 -0.7,0.3 -1.1,0 -1.5,-0.5 -0.5,0.1 -0.5,1 -1,0.3 0,-0.2 0.6,-0.3 0.4,-0.7 -0.6,-0.5 -1.4,-0.8 -2.1,-1 2.3,-2.5 5.4,-3.7 8.6,-4.2 0.2,1.3 -0.2,3.1 0.3,4.4 -0.6,-0.7 -2.3,1.1 -2,-0.7 m 2.8,3.8 c 0,0.1 0.1,0.2 0.2,0.3 -0.2,-0.1 -1.1,-0.2 -1.2,0.3 0,0.8 1,1 1.4,1.6 1.6,-0.7 1.9,1.4 3.2,1.7 -0.7,0.7 1,1.4 -0.1,1.8 0,0.4 -0.4,0.6 -0.3,1 0.8,0.1 0.7,0.9 1.1,1.4 0,0.5 -0.2,1.2 0.5,1.5 -0.1,0.7 -0.2,1.4 -0.5,1.9 -0.7,0.2 -1.3,0 -2,0.1 -1.1,0.6 -0.4,2.6 -1.9,2.5 -1.6,0.1 -2.9,-0.4 -4.2,-1.3 1,-0.2 1.8,0.1 2.5,-0.7 0,-0.4 0.5,-0.7 0.3,-1.1 0.4,-0.6 1,-1.4 0.7,-2 0.1,-0.4 -0.4,-0.5 -0.7,-0.7 -0.9,0.1 -1.9,-0.3 -2.7,0.4 0.1,0.6 0,1.3 -0.6,1.5 -0.7,0.1 -0.6,1.1 -1.1,1.1 l -0.5,-0.8 h 0.2 c -0.1,0.2 0.1,0.3 0.3,0.3 0.9,0 0.5,-1 0.8,-1.4 l 0.7,-0.9 c -0.3,-0.2 -0.6,-0.5 -0.5,-0.9 -0.3,-0.2 -0.8,0 -0.9,0.4 0,0.4 0,0.7 -0.3,1 H 52.2 C 52.3,43.1 52,43 51.9,42.8 c -1.2,0 -2.3,0.7 -3.5,0.5 1.1,-0.2 0.7,-3.1 2.5,-1.8 l 0.3,-0.3 c 0.5,0.5 0.1,1.9 1.3,1.6 0.6,-1.4 -0.1,-3.6 1.7,-4.2 0.2,-1.2 1.9,-1 2.6,-2 0.5,-0.4 0.1,-1.3 0,-1.9 l -0.1,-0.1 c 0.2,-0.3 0.8,-0.3 1.3,-0.3 M 63.5,11 c 2.8,0.6 5.5,1.4 8.1,2.6 1.6,0.8 1,2.5 2.2,3.4 0.4,0.7 -0.4,1.4 0.4,2 0,0.6 0.3,1.4 1,0.9 0.3,-0.3 0.8,-0.7 1.3,-0.4 0.9,0.7 1,1.9 1,2.8 0.2,0.8 0.7,1.2 1.4,1.5 1.3,-0.3 0.8,1.7 2.2,1.7 0.6,0.4 1.2,1 1.9,1 0.9,0.7 1.5,1.8 2.1,2.7 0.5,0.3 1,0 1.4,-0.2 1.7,3.4 2.5,7.2 2.9,11.1 l -6,0.1 c -0.2,-1 0,-2.3 -0.5,-3.2 0.1,-0.6 0.2,-1.5 0.3,-2.2 -0.2,-0.6 -0.6,0 -0.8,0.1 -0.5,1.7 -2.2,3.4 -0.9,5.3 H 79 c 0.3,-0.4 -0.2,-1 0.1,-1.6 1.3,0.3 1.4,-1.2 2.1,-1.9 0.2,-1 1.3,-2.1 0.3,-3.1 0.7,-1 0.3,-2.4 -0.1,-3.4 -0.3,-0.4 -1.2,0.1 -1,-0.7 0.2,-0.3 0.6,-0.5 0.5,-0.9 -0.3,-0.4 -0.6,0.1 -0.9,-0.1 -0.1,-0.5 0.8,-0.8 0.3,-1.2 -0.6,-0.9 -1.7,0.9 -2,-0.5 C 78.4,26 77.6,25.4 77,24.9 76.3,25 76.9,24 76.4,23.8 c -2,-1 -0.5,-4.1 -3.1,-4.1 -0.5,-0.7 -1.2,-2 -2.1,-2 -0.3,0.7 0.7,1 0.6,1.7 h -0.2 c -0.1,0.5 0.4,1.3 0.7,1.5 -3.8,-2.9 -8.5,-4.4 -13.4,-4.4 0.1,-1.9 0.2,-4.2 -0.1,-6.1 1.6,0.3 3.2,0.4 4.7,0.6 M 59.1,1.9 c 2,0.5 4.2,0.4 6.2,0.8 7.4,1.4 14.1,4.8 19.7,10 -1.5,0.8 -2.9,2.2 -3.8,3.8 v 0.1 C 80.9,15.9 80,15.5 80.1,14.6 79.4,13.9 78.9,12.9 77.9,12.7 77.5,11.4 76.2,12.2 75.5,11.4 72.9,13.1 70.6,9.9 67.9,9.5 65.4,8.7 62.8,8.1 60,8.2 60.2,7.7 60.2,7.1 59.6,6.9 59.4,7 59.2,7 59.1,7.3 c 0.2,-1.7 0.2,-3.8 0,-5.4 m 38.4,38.1 0.2,0.2 c -1.9,0 -4.2,0 -6.2,0.3 -0.2,-4.5 -1.2,-9.1 -3.2,-13 0,-1.6 -1.4,-2.5 -1.9,-3.8 -1.4,-1.3 -2.2,-3 -3.9,-4.2 -0.3,-0.2 -0.2,-0.8 -0.7,-0.8 l 0.7,-0.1 4.1,-4.4 C 93,21.3 97.1,29.9 97.5,40 m -0.6,8.2 c -1.2,7.5 -4.8,14.2 -9.9,20.1 -1.4,-1.4 -3,-3.1 -4.5,-4.4 5.2,-5.5 8.6,-13 8.9,-21.1 l -0.2,-0.4 0.3,0.3 c 2.1,-0.1 4.3,0.2 6.2,-0.3 -0.5,1.8 -0.3,3.9 -0.8,5.8 M 59.5,80.8 59.2,81 v -6.5 c 2.1,0.3 4.3,-0.2 6.4,-0.6 1.4,0.3 2.3,2.3 3.8,1.7 3.9,-1.5 4.3,-6 8.3,-7.3 1.2,-0.7 2.4,-1.8 3.2,-3 1.2,1.5 2.9,3.1 4.4,4.6 -6.8,6.5 -15.8,10.4 -25.8,10.9 m 2.4,-13 c 0,0.7 -0.7,1.5 -0.2,2.2 0.3,1.2 1.5,1.1 2.2,1.9 -1.3,0.2 -3.3,0.2 -4.7,0.7 L 59.3,67.7 58.9,67 c 0.7,0.9 2.1,0.4 3,0.8 M 66,51.5 c -0.2,0.7 -1.2,0.6 -1.7,1.2 -0.1,-0.8 0.8,-1.4 1.7,-1.2 m 3.2,-22.9 c -2.6,-2.4 -6.4,-3.8 -10,-4.1 0.1,-1.9 0.2,-4 -0.1,-5.8 5.5,0.4 10.2,2.5 14.5,5.8 -1.5,0.8 -3,2.7 -4.4,4.1 m 11.2,18 c -0.1,-1.4 -2,-1.8 -1.9,-3.2 l -1,-1.2 c 1,0.7 2.5,0.3 3.7,0.4 -0.4,1.3 -0.4,2.8 -0.8,4 m -13.5,1.5 c 0.3,0 0.3,0.8 1,0.8 0.4,0.3 0.3,0.8 0.5,1.2 -0.1,0.2 -0.3,0.1 -0.5,0.1 -0.2,-1 -1.8,-0.9 -1,-2.1 m 5.3,8.7 c 1.6,0.2 1.4,-1.7 1.9,-2.6 0,-0.5 0,-1 0.4,-1.3 0,-0.7 -0.1,-1.5 -0.5,-2.1 -0.7,-0.3 -1.6,0 -1.8,0.7 -0.2,0.2 -0.1,0.5 -0.4,0.7 -0.4,-0.2 -1.2,0.6 -1.4,-0.1 1.8,0.5 1.3,-2 3.1,-1.5 0.5,-0.7 1.2,-1.4 1.3,-2.2 0,0.3 0.1,0.8 0.5,0.8 1,0.1 0.7,-1.5 1.9,-0.7 1,0.2 1.8,-0.4 2.8,-0.3 -0.7,3.2 -2.5,5.6 -4.5,8.2 -0.3,-0.5 -0.2,-1.4 -0.8,-1.5 -0.5,0.6 -0.8,1.3 -0.9,2 -0.8,0.6 -2.2,0.3 -3.2,0.5 -1,-0.9 -2.4,-0.9 -3.6,-1.4 v -0.4 c 1.6,0.2 3.5,0.6 5.2,1.2 m 3.5,9.5 c -1,-1 0.6,-1.9 1,-2.7 -0.1,-1.8 -4.4,-1.9 -1.5,-3.9 v -0.1 c 0.7,1.4 2.8,2.2 2.8,3.9 0.3,0.5 0.9,0.7 1.4,0.3 l -4,3.4 c 0.2,-0.3 0.6,-0.5 0.3,-0.9 m 7.4,-21.5 c 0,-0.8 0.4,-1.5 0.2,-2.3 1.9,0.3 4.1,0.2 6.1,0.1 -0.7,1.5 -0.5,3.7 -0.9,5.5 -1.2,5.3 -3.7,10.2 -7.6,14.4 -0.1,-1 -0.2,-3.1 -1.7,-3.5 -0.2,-0.1 -0.3,0.2 -0.5,0.3 v 0.5 c -0.8,-0.2 -1.3,-1.2 -2,-1.6 H 77 c 2.7,-3 4.6,-6.5 5.6,-10.3 0.4,0.2 0.8,0.2 1.1,-0.1 0.5,-1.3 -1.4,-1.7 -0.6,-3 M 79.8,33.5 c 0.2,1.3 1.4,2.7 -0.1,3.8 -0.2,0.3 -0.5,0.5 -0.9,0.4 C 78.5,37 79.3,36.8 79.2,36 79.5,35.8 80,35.5 79.7,35.1 79,35 78.8,33.9 78.1,33.9 77.4,33.7 76.8,34.2 76.4,34.5 76.3,34.3 76.2,34.2 76,34 c 0.2,-0.3 0.6,-0.6 0.3,-0.9 -0.7,-0.4 -0.8,-1.3 -1.6,-1.7 -1.4,-0.2 -2.5,0 -3.8,-0.5 -1.3,-0.3 -0.9,1.2 -1.4,1.7 0,0.1 -0.3,-0.2 -0.5,-0.5 1.7,-2 4.1,-4.2 5.8,-6.3 0.9,1.4 2.7,2.6 2.7,4.3 -0.3,0.2 -0.5,0.6 -0.6,1 1.1,0.9 2.3,1.2 2.9,2.4 M 63.5,30.4 c -0.2,-0.2 -0.2,-0.8 -0.7,-0.6 -0.5,0.7 -1.4,0.9 -1.9,1.7 l -1.6,-0.6 -0.2,-4.2 c 3,0.5 5.7,1.5 8.2,3.1 -0.3,0.3 -1.1,0.7 -1.2,1.2 0.3,0.1 0.5,0.5 0.9,0.2 -0.5,1.6 -2.7,1.4 -3,3 -1.2,1.3 -1.9,-1.5 -3.1,-0.3 h -0.5 c 1.4,-0.8 3.5,-1.6 3.1,-3.5 m -6.8,26.3 c 0.1,-0.4 0.8,-0.2 1,-0.7 0.9,0.1 0.9,-1 1.4,-1.4 0.6,0.1 1.3,-1 1.7,-0.1 0.9,-0.4 1.5,1.8 1.8,0.1 0.5,0.2 1,0.9 1.5,0.4 0.4,-0.3 0.1,-0.7 -0.1,-0.9 0.5,0.2 1.1,0.9 1.6,0.3 0.2,-0.5 0.6,-0.5 1,-0.7 0.5,0.2 0.3,0.9 0.1,1.3 -0.7,0.9 -1.9,1.7 -3.1,1.9 -0.2,0.4 -0.2,1 -0.8,1 -0.5,-0.8 -2.1,0.2 -2,-1.2 -0.8,0.1 -1.8,-0.3 -2.5,0.3 -0.6,0 -1.2,0.2 -1.6,-0.3 m -25.6,13.4 4.3,-4.4 c 5.8,5.7 13.3,8.8 21.5,9 L 57,74.6 c -0.3,1.9 -0.1,3.9 -0.2,5.8 l 0.3,0.5 C 47.2,80.2 38.4,76.7 31.1,70.1 M 33.3,42.7 C 33,43.5 33,44.4 33.4,45.2 33.2,45 33,44.8 32.8,44.7 c -1.3,-0.1 -1.4,1.5 -2.6,1.6 -0.8,1.2 -1,2.7 -1.2,4 -0.5,0 -0.2,0.6 -0.6,0.9 -0.2,-2.7 -1,-5.4 -1.2,-8.2 L 27,42.7 c 2.1,0.2 4.4,0.2 6.3,0 m 6.4,-18.2 c -4.1,4.3 -6.2,9.8 -6.6,15.8 l 0.2,0.3 c -1.9,-0.2 -4.1,0 -6.1,-0.1 0.5,-7.6 3.2,-14.3 8.2,-19.9 v -0.4 c 1.2,1.4 2.7,2.9 4.3,4.3 m 3.8,7.5 c -1.1,0.6 -1.5,1.8 -2.8,2 -0.7,0.3 0.2,1 -0.7,1.2 -1.9,-0.1 -2.1,2.1 -2.7,3.3 0,0.7 -0.1,1.4 0.3,1.9 l -2.5,0.1 c 0.6,-3.2 1,-6.4 2.5,-9.2 0.9,-1.9 2.2,-3.7 3.5,-5.3 1.6,1.5 2.8,3 4.6,4.3 -0.9,0.1 -1.1,1.6 -2.2,1.7 m 8.4,29.4 c 0.7,1.1 1.2,2.5 2.7,2.7 -4,-0.7 -8.3,-2.7 -11.7,-5.6 h -0.3 c 1.5,-1.2 2.9,-2.7 4.2,-4.2 1.8,2.1 4.3,3.2 6.7,4 0.5,-0.1 0.9,-0.2 1.4,-0.3 -1,0.1 -1.7,0.6 -2.2,1.4 0.1,0.9 -1.2,1.1 -0.8,2 M 38.7,42.7 c 0.4,-0.3 1.2,0.3 1.3,-0.5 0.1,-0.9 -1.4,-2.2 0.1,-2.7 0.6,0 1.5,-0.1 1.6,0.7 0.3,1 -0.2,2.4 0.1,3.2 l -0.9,0.5 c -0.3,-0.2 -0.5,-0.8 -1,-0.7 -0.5,0.4 0.2,0.7 0.1,1.1 0,0.3 -0.1,0.7 -0.1,1 -0.3,0 -0.7,-0.2 -0.9,0.2 0,0.7 0.7,0.8 1,1.1 0.7,-0.3 0.6,-1.3 0.7,-2 l 0.7,0.4 c 0.5,2.9 2,5.7 3.8,7.8 L 40,58.1 c 0,-0.4 -0.7,-0.2 -0.3,-0.6 0.3,-0.2 0.8,-0.3 0.8,-0.8 0,-1 -0.3,-1.9 -0.9,-2.5 -0.2,-1.4 0,-2.9 -0.7,-4 0.2,-1.5 -0.6,-2.7 -1.7,-3.8 0.4,-0.8 -0.5,-1.2 -0.2,-2 0.9,-0.2 1.9,-0.5 1.7,-1.7 m -3,4.1 c 0.3,-1.5 -0.2,-2.9 -0.6,-4.3 0.6,0.3 1.2,0.3 1.9,0.2 -0.9,0.1 -0.5,1.5 -1,2.2 1.1,0.6 -0.1,1.3 -0.3,1.9 M 57,72.6 56.5,72.3 C 48.9,72 42.3,68.7 36.6,63.8 c 0.7,-0.1 1.6,1.3 2.8,0.7 1.3,-1 2.9,-0.4 4.2,-1.2 0.3,-0.8 -0.5,-0.9 -0.5,-1.5 4,3 8.7,5.1 13.8,4.8 -0.1,2 -0.2,4.2 0.1,6 M 49.6,48.1 c 0.3,-0.4 0.7,-0.9 0.8,-1.4 l 0.6,0.4 c -0.6,0 -0.9,0.8 -1.4,1 m 2.7,0.4 c 0.2,0.9 1.2,1 1.8,1.5 1,0.3 2.1,1.2 3.3,0.6 -0.5,0.2 0,0.8 -0.2,1.1 -0.1,0.3 -0.3,0.9 -0.1,1.4 0.2,0.3 0.4,0.3 0.5,0.7 -0.3,0.4 -0.9,0 -1.3,0.3 -0.4,0.6 -0.4,1.3 -0.3,2 -2.7,-0.4 -5.2,-1.7 -7.3,-3.3 z m -4.2,-0.6 c 0.2,-0.3 -0.3,-0.6 -0.1,-1 0.5,0.3 0.2,1.1 0.6,1.6 0.2,0.2 0,0.4 0.1,0.7 L 46.8,51 c -1,-1.7 -2.1,-3.4 -2.6,-5.3 l -0.3,-0.6 c 0.4,0.6 1.6,0 1.7,0.9 0.5,0.4 1.1,-0.2 1,0.7 0.3,0.7 0.9,1 1.5,1.2 M 56.8,16.5 C 50.9,16.6 45.4,19 41.3,23 40,21.6 38.5,19.9 37,18.8 c 5.6,-5 12.3,-7.7 19.8,-8.3 -0.1,2 -0.1,4.1 0,6 M 18.9,42.7 c 2,0.1 4.3,0.2 6.2,-0.1 -0.1,2.7 0.4,5.6 1.3,8 -0.6,-0.7 -1.1,-1.9 -2.1,-1 -0.4,0.2 0.1,1 -0.7,0.7 -0.2,-0.3 -1,-0.6 -1.4,-0.2 -0.7,1 -1,2.1 -0.7,3.4 0.8,0.7 0.2,2.6 1.7,2.2 0.4,0.4 0.9,1.3 1.6,1.3 l 0.4,-0.7 c 0.4,1 1.4,1 1.9,1.9 0.9,-0.5 0.5,0.8 1,1 0.6,0.3 0.8,1.4 1.7,1 0.1,-0.1 0.2,-0.2 0.2,-0.3 0.2,0.8 0.9,1.7 1.9,1.9 0.8,0.7 1.3,1.5 2,2 -1.5,1.2 -3.1,2.9 -4.6,4.4 C 23,61.2 19.4,52.6 18.9,42.7 M 17,46.4 c 1.4,16 14.1,30.8 29.6,34.9 C 63.6,86 80.9,80 91.4,66.2 100.9,54.5 102.5,34.8 94.6,21.9 90.9,14.8 83.9,7.9 76.9,4.5 65.4,-2 48.4,-1.2 37.3,5.6 23,14 15.1,29.5 17,46.4"
         inkscape:connector-curvature="0" />
      <path
         style="fill:#00adef"
         id="path26"
         d="M 78.8,12.2 78.6,11 c -0.3,-0.8 -1.4,-0.4 -1.9,-0.7 -0.3,0.1 -0.2,0.6 -0.1,0.8 1.1,0.1 1.1,1.8 2.2,1.1"
         inkscape:connector-curvature="0" />
      <path
         style="fill:#00adef"
         id="path28"
         d="M 61.7,7.8 C 63.4,7 65.5,8.3 67,6.6 66.6,5.4 65,5.4 63.9,5.2 L 61.1,6.4 C 60.8,6.6 59.8,6.1 60,6.9 c 0.5,0.4 1,0.8 1.7,0.9"
         inkscape:connector-curvature="0" />
      <path
         style="fill:#00adef"
         id="path30"
         d="m 8.2,31.3 c 1.1,-2.2 3.3,-4.4 5.2,-6 4.4,-2.8 8.3,-7.3 8.4,-12.3 -2.3,6 -10,6.7 -11.9,13.1 H 9.8 c 2.8,-5.3 1.2,-12.7 6.6,-16.6 -2.8,0.8 -5.2,2.9 -6.7,5.4 -3.2,4.6 -0.6,11 -1.5,16.4"
         inkscape:connector-curvature="0" />
      <path
         style="fill:#00adef"
         id="path32"
         d="m 16.6,16.6 c 4.9,-3.4 6.2,-9 11,-12.6 -3.7,1.5 -7.7,2.7 -10.4,6.1 -2.1,2.8 -2.8,6.1 -3.9,9.3 z"
         inkscape:connector-curvature="0" />
      <path
         style="fill:#00adef"
         id="path34"
         d="m 104.7,20.6 c 0.4,1.7 1.4,3.2 1.5,4.9 C 104,19.1 96.6,18.4 93.9,12.4 l 0.8,3.5 c 2.1,6.8 10.2,8.5 13.3,14.7 -1,-4.5 0.7,-9.2 -0.6,-13.6 -1.1,-3.8 -4.2,-7.1 -8.1,-8.2 4.2,2.7 3.9,7.7 5.4,11.8"
         inkscape:connector-curvature="0" />
      <path
         style="fill:#00adef"
         id="path36"
         d="M 9.7,60.5 C 9.3,58.7 9.4,56.4 9.6,54.5 11.2,48 13.8,41.8 13.4,34.7 12.4,39.8 7.8,43.5 7.3,48.8 7,51 7.5,53.1 7.8,55 7.3,54 6.8,52.9 6.8,51.7 6,44.7 0.4,39.6 1.6,32.1 c -2,4.6 -1.9,10.8 -0.4,15.6 1.2,5 6,8.5 8.5,12.8"
         inkscape:connector-curvature="0" />
    </g>
  </g>
</svg>
